<svg width="208" height="30" viewBox="0 0 208 30" fill="none" xmlns="http://www.w3.org/2000/svg">
<g clip-path="url(#clip0_91_232)">
<path d="M117.801 19.1768V14.1709H121.156V19.1768H130.387V21.9239H110.805V19.1768H117.801ZM123.394 16.918C123.911 16.2007 124.224 15.4033 124.37 14.5142C124.458 13.8847 124.515 13.1407 124.542 12.3127H112.645V9.48164H124.573V6.70779H112.53V3.84619H127.87V12.7401C127.87 13.2857 127.839 13.8275 127.782 14.3426C127.694 14.8576 127.579 15.3422 127.438 15.8001C127.266 16.2579 127.036 16.628 126.749 16.9142H123.394V16.918Z" fill="#191E28"/>
<path d="M70.5505 14.56C71.1243 15.0751 71.7823 15.5024 72.5856 15.7886C73.3316 16.1052 74.1617 16.3342 75.0531 16.4448C75.9138 16.5898 76.8013 16.647 77.75 16.5898C78.6681 16.5898 79.5556 16.502 80.447 16.3342C81.3077 16.1892 82.1378 15.9908 82.9412 15.7046C83.7139 15.4757 84.4025 15.1628 85.0337 14.8194V11.9578C83.7139 12.6446 82.2793 13.1025 80.7606 13.3581C79.2113 13.6443 77.8074 13.7015 76.5182 13.5603C75.1984 13.4459 74.1082 13.1292 73.2474 12.6179C72.3599 12.1295 71.9277 11.4466 71.9277 10.5308V6.59709H84.6588V3.82324H68.6875V10.1035C68.6875 11.1032 68.8596 11.9616 69.2039 12.6789C69.5176 13.423 69.9767 14.0525 70.5505 14.5676V14.56Z" fill="#191E28"/>
<path d="M67.5117 21.6069H75.6523V27.414H79.0072V21.6069H87.0942V18.833H67.5117V21.6069Z" fill="#191E28"/>
<path d="M104.625 3.24707V21.8933L107.835 21.9238V3.24707H104.625Z" fill="#191E28"/>
<path d="M103.274 18.833H88.8516V21.5229H103.274V18.833Z" fill="#191E28"/>
<path d="M95.6226 2.99512C91.8851 2.99512 88.8516 6.01697 88.8516 9.7485C88.8516 13.48 91.8813 16.5019 95.6226 16.5019C99.3639 16.5019 102.394 13.48 102.394 9.7485C102.394 6.01697 99.3639 2.99512 95.6226 2.99512ZM95.6226 13.3198C93.6449 13.3198 92.0382 11.7211 92.0382 9.74468C92.0382 7.76827 93.641 6.16959 95.6226 6.16959C97.6042 6.16959 99.2071 7.76827 99.2071 9.74468C99.2071 11.7211 97.6042 13.3198 95.6226 13.3198Z" fill="#191E28"/>
<path d="M140.533 16.5442C141.222 16.4297 141.853 16.2008 142.484 15.9146C143.085 15.6552 143.632 15.3423 144.118 14.9417V12.1678C142.913 12.9385 141.738 13.4269 140.621 13.6559C139.474 13.8848 138.441 13.9153 137.58 13.6864C136.662 13.4842 135.947 13.0874 135.43 12.4578C134.883 11.8855 134.627 11.1148 134.627 10.199V6.68118H142.599V3.8501H131.387V9.82512C131.387 10.8248 131.501 11.6833 131.788 12.4273C132.018 13.2018 132.389 13.8581 132.848 14.3732C133.28 14.9188 133.793 15.3461 134.424 15.6895C134.998 16.0596 135.656 16.3191 136.345 16.4602C137.002 16.6319 137.691 16.7197 138.437 16.7197C139.126 16.7502 139.841 16.6892 140.53 16.548L140.533 16.5442Z" fill="#191E28"/>
<path d="M149.994 22.8586V3.24707H146.781V17.5131C145.886 17.0171 144.857 16.7309 143.759 16.7309C140.312 16.7309 137.52 19.5162 137.52 22.954C137.52 26.3917 140.312 29.177 143.759 29.177C147.206 29.177 149.998 26.3917 149.998 22.954C149.998 22.9235 149.994 22.8929 149.994 22.8586ZM143.759 25.9567C142.095 25.9567 140.748 24.6137 140.748 22.954C140.748 21.2942 142.095 19.9512 143.759 19.9512C145.423 19.9512 146.769 21.2942 146.769 22.954C146.769 24.6137 145.423 25.9567 143.759 25.9567Z" fill="#191E28"/>
<path d="M57.8313 18.9283V17.0626C59.3806 16.9748 60.7004 16.5208 61.7868 15.6623C63.0492 14.6894 63.7072 13.2586 63.7072 11.3737V3.84961H48.2791V11.0837C48.2791 13.0869 48.8835 14.6016 50.0847 15.5745C51.2324 16.5475 52.6937 17.0626 54.4725 17.0893V18.9283H46.3281V21.6755H65.9106V18.9283H57.8236H57.8313ZM54.9584 14.3879C53.8987 14.3879 53.0648 14.1323 52.4336 13.6172C51.7756 13.1021 51.4581 12.3314 51.4581 11.244V6.66924H60.4594V11.2173C60.4594 12.3314 60.0883 13.1326 59.3997 13.621C58.6538 14.1361 57.793 14.3918 56.7601 14.3918H54.9545L54.9584 14.3879Z" fill="#191E28"/>
<path d="M37.0998 6.20386V9.89724C37.0998 11.6638 38.0945 12.3162 39.7432 12.6596C40.7072 12.8771 41.5488 13.4342 41.5488 15.0176C41.5488 16.601 40.7072 17.1886 39.7432 17.4061C37.972 17.78 37.0998 18.4592 37.0998 20.2601V23.858C37.0998 26.9905 35.233 29.814 30.3173 30.0009C29.1352 30.0009 28.7297 29.3485 28.7297 28.326C28.7297 27.3034 29.1046 26.651 30.2523 26.5251C31.8704 26.3381 33.1137 25.472 33.1137 23.5795V19.6381C33.1137 17.5892 33.5804 15.7616 36.5987 15.1397V14.9833C33.4886 14.4262 33.1137 12.4994 33.1137 10.2673V6.35648C33.1137 4.49453 31.836 3.62842 30.2523 3.50251C29.1008 3.44146 28.6953 2.63258 28.6953 1.61004C28.6953 0.804973 29.1008 -0.00390625 30.0648 -0.00390625C35.2292 -0.00390625 37.096 3.03702 37.096 6.20005L37.0998 6.20386Z" fill="#385AE8"/>
<path d="M4.44901 23.7971V20.1037C4.44901 18.3371 3.45439 17.6847 1.80562 17.3413C0.841601 17.1238 0 16.5668 0 14.9834C0 13.3999 0.841601 12.8123 1.80562 12.5949C3.5768 12.221 4.44901 11.5418 4.44901 9.7409V6.14291C4.44901 3.01041 6.31583 0.186958 11.2277 0C12.4098 0 12.8153 0.652445 12.8153 1.67499C12.8153 2.69754 12.4404 3.34998 11.2928 3.47589C9.67458 3.66285 8.43131 4.52896 8.43131 6.42144V10.3628C8.43131 12.4117 7.9646 14.2393 4.94632 14.8613V15.0177C8.05641 15.5747 8.43131 17.5016 8.43131 19.7336V23.6445C8.43131 25.5064 9.70901 26.3725 11.2928 26.4984C12.4442 26.5595 12.8497 27.3684 12.8497 28.3909C12.8497 29.196 12.4442 30.0049 11.4802 30.0049C6.31583 30.0049 4.44901 26.9639 4.44901 23.8009V23.7971Z" fill="#385AE8"/>
<path d="M15.607 13.8922C16.8957 13.8922 17.9405 12.8501 17.9405 11.5647C17.9405 10.2793 16.8957 9.2373 15.607 9.2373C14.3182 9.2373 13.2734 10.2793 13.2734 11.5647C13.2734 12.8501 14.3182 13.8922 15.607 13.8922Z" fill="#385AE8"/>
<path d="M25.939 13.6822C27.2278 13.6822 28.2725 12.6402 28.2725 11.3548C28.2725 10.0694 27.2278 9.02734 25.939 9.02734C24.6502 9.02734 23.6055 10.0694 23.6055 11.3548C23.6055 12.6402 24.6502 13.6822 25.939 13.6822Z" fill="#385AE8"/>
<path d="M25.2864 17.9592C22.601 20.9276 18.9515 20.9276 16.2622 17.9592C15.0151 16.5818 12.9761 18.6231 14.2194 19.9966C17.9148 24.0754 23.63 24.0792 27.3254 19.9966C28.5687 18.6231 26.5335 16.5818 25.2826 17.9592H25.2864Z" fill="#385AE8"/>
<path d="M176.055 24.9576C176.055 26.2815 174.9 27.3193 173.424 27.3193C171.947 27.3193 170.838 26.2815 170.838 24.9576V17.5098H168.879V25.1025C168.879 27.4758 170.876 29.3301 173.42 29.3301C175.964 29.3301 177.999 27.472 177.999 25.1025V17.5098H176.055V24.9576Z" fill="#FF0022"/>
<path d="M184.306 16.9561C181.759 16.9561 179.766 18.8142 179.766 21.1836V28.929H181.724V21.3286C181.724 20.0046 182.86 18.9668 184.31 18.9668C185.76 18.9668 186.942 20.0046 186.942 21.3286V28.929H188.886V21.1836C188.886 18.8104 186.873 16.9561 184.306 16.9561Z" fill="#FF0022"/>
<path d="M203.482 12.9998C203.482 12.4466 203.046 12.0154 202.491 12.023C201.952 12.0307 201.527 12.4924 201.527 13.0341V15.6554H203.486V12.9998H203.482Z" fill="#FF0022"/>
<path d="M206.967 27.0066H205.081C204.064 27.0066 203.482 26.3045 203.482 25.0912V19.2306L203.474 19.223H206.979C207.51 19.223 207.923 18.8033 207.916 18.273C207.908 17.7541 207.464 17.3496 206.944 17.3496H201.527V17.3611H201.523V25.2438C201.523 27.5026 202.809 28.9067 204.882 28.9067H206.963C207.491 28.9067 207.92 28.4831 207.92 27.9566C207.92 27.4301 207.491 27.0027 206.963 27.0027L206.967 27.0066Z" fill="#FF0022"/>
<path d="M162.541 17.3569H159.955V12.9882C159.955 12.4235 159.534 12 158.975 12C158.417 12 157.996 12.435 157.996 12.9882V28.9331H159.955V19.2303H162.541C164.017 19.2303 165.173 20.2681 165.173 21.5921V28.9331H167.116V21.5883C167.116 19.2151 165.104 17.3607 162.537 17.3607L162.541 17.3569Z" fill="#FF0022"/>
<path d="M195.185 16.9565C192.638 16.9565 190.645 18.8146 190.645 21.184V25.0987C190.645 27.4719 192.657 29.3262 195.224 29.3262C197.045 29.3262 198.586 28.3762 199.313 26.9644C199.611 26.3883 199.286 25.6824 198.655 25.5298C198.215 25.423 197.752 25.6176 197.538 26.0144C197.121 26.7889 196.253 27.3116 195.224 27.3116C193.747 27.3116 192.592 26.2738 192.603 24.9499V24.1143H198.808H199.768V21.1802C199.768 18.807 197.756 16.9526 195.189 16.9526L195.185 16.9565ZM192.599 21.329C192.599 20.005 193.735 18.9672 195.185 18.9672C196.635 18.9672 197.817 20.005 197.806 21.329V22.26H192.599V21.329Z" fill="#FF0022"/>
</g>
<defs>
<clipPath id="clip0_91_232">
<rect width="208" height="30" fill="white"/>
</clipPath>
</defs>
</svg>
